<?xml version="1.0" encoding="UTF-8"?>
<!DOCTYPE svg PUBLIC "-//W3C//DTD SVG 1.1//EN" "http://www.w3.org/Graphics/SVG/1.1/DTD/svg11.dtd">
<!-- Creator: CorelDRAW X7 -->
<svg xmlns="http://www.w3.org/2000/svg" xml:space="preserve" width="672.237mm" height="59.1994mm" version="1.1" shape-rendering="geometricPrecision" text-rendering="geometricPrecision" image-rendering="optimizeQuality" fill-rule="evenodd" clip-rule="evenodd"
viewBox="0 0 66333 5842"
 xmlns:xlink="http://www.w3.org/1999/xlink">
 <g id="Layer_x0020_1">
  <metadata id="CorelCorpID_0Corel-Layer"/>
  <path fill="#16BEAF" d="M66333 0l-66333 0 0 873 0 1327 0 228 0 368c15,507 179,406 1654,406l12176 0c1774,0 2120,172 3106,1152 288,287 471,587 942,888 907,578 1841,599 3004,600l56 0 24422 0 1216 0c407,-9 797,-34 1145,-103 354,-70 632,-146 912,-284 1318,-647 1422,-1707 2794,-2097 291,-83 721,-158 1076,-157l13338 2c391,4 476,-98 492,-337l0 -403 0 -77c0,-628 0,-1257 0,-1886l0 -500z"/>
 </g>
</svg>
